<?xml version="1.0" encoding="utf-8"?>
<!-- Generator: Adobe Illustrator 25.2.1, SVG Export Plug-In . SVG Version: 6.00 Build 0)  -->
<svg version="1.1" id="Ebene_1" xmlns="http://www.w3.org/2000/svg" xmlns:xlink="http://www.w3.org/1999/xlink" x="0px" y="0px"
	 viewBox="0 0 1600 900" style="enable-background:new 0 0 1600 900;" xml:space="preserve">
<style type="text/css">
	.st0{opacity:3.000000e-02;clip-path:url(#XMLID_5_);}
	.st1{fill:#3C3C3B;}
	.st2{fill:#9C9B9B;}
	.st3{fill:#6F6F6E;}
	.st4{fill:#FFFFFF;}
	.st5{fill:#ECECEC;}
	.st6{fill:#C6C6C5;}
	.st7{fill:#D9D9D9;}
	.st8{opacity:3.000000e-02;}
</style>
<g>
	<defs>
		<rect id="XMLID_1_" width="1600" height="900"/>
	</defs>
	<use xlink:href="#XMLID_1_"  style="overflow:visible;fill:#FF5733;"/>
	<clipPath id="XMLID_5_">
		<use xlink:href="#XMLID_1_"  style="overflow:visible;"/>
	</clipPath>
	<g id="XMLID_3_" class="st0">
		<g>
			<polygon class="st1" points="1782.4,27.9 1826.3,236.6 1652.4,363.1 			"/>
			<polygon class="st2" points="1826.3,236.6 1711.4,509.8 1652.4,363.1 			"/>
			<polygon class="st3" points="1782.4,27.9 1652.4,363.1 1529,207.3 			"/>
			<polygon class="st4" points="1711.4,509.8 1757.7,747.6 1452.3,746.8 			"/>
			<polygon class="st3" points="1757.7,747.6 1472,797.9 1452.3,746.8 			"/>
			<polygon class="st5" points="1652.4,363.1 1711.4,509.8 1452.3,746.8 			"/>
			<polygon class="st4" points="1529,207.3 1652.4,363.1 1416.3,592.2 			"/>
			<polygon class="st1" points="1652.4,363.1 1452.3,746.8 1416.3,592.2 			"/>
			<polygon class="st5" points="1332.3,-54.8 1529,207.3 1227.6,346.1 			"/>
			<polygon class="st4" points="1416.3,592.2 1452.3,746.8 1160.2,955.8 			"/>
			<polygon class="st3" points="1227.6,346.1 1416.3,592.2 1099.8,648.5 			"/>
			<polygon class="st1" points="1332.3,-54.8 1227.6,346.1 1209.4,29.7 			"/>
			<polygon class="st3" points="1209.4,29.7 1227.6,346.1 1049,199.7 			"/>
			<polygon class="st5" points="1227.6,346.1 1099.8,648.5 850.4,367.8 			"/>
			<polygon class="st6" points="1099.8,648.5 1160.2,955.8 893.1,639.5 			"/>
			<polygon class="st3" points="893.1,639.5 1160.2,955.8 917.4,1046.5 			"/>
			<polygon class="st1" points="850.4,367.8 1099.8,648.5 893.1,639.5 			"/>
			<path class="st7" d="M945.7-30.4L1049,199.7c0,0-194,167.7-198.5,168.1c-0.3-3.3,92.2-386.2,95.1-398.1L945.7-30.4z"/>
			<polygon class="st4" points="945.7,-30.6 945.7,-30.4 945.5,-30.2 788.7,180.3 820.7,32.6 			"/>
			<polygon class="st4" points="945.7,-30.6 820.7,32.6 762.8,-48.1 			"/>
			<path class="st1" d="M788.7,180.3L945.5-30.2c-2.9,11.8-95.3,394.8-95.1,398.1L788.7,180.3z"/>
			<polygon class="st2" points="850.4,367.8 893.1,639.5 761.9,548.4 			"/>
			<polygon class="st6" points="893.1,639.5 748.3,780 761.9,548.4 			"/>
			<polygon class="st4" points="850.4,367.8 622.9,403.4 607.1,215.3 			"/>
			<polygon class="st4" points="762.8,-48.1 820.7,32.6 716.7,49.6 			"/>
			<path class="st4" d="M716.7,49.6l71.9,130.7l-181.6,35.1C612,214.9,716.7,49.6,716.7,49.6z"/>
			<polygon class="st4" points="762.8,-48.1 716.7,49.6 521.3,-3.3 			"/>
			<polygon class="st1" points="762.8,-48.1 521.3,-3.3 424,-82.3 			"/>
			<polygon class="st4" points="622.9,403.4 761.9,548.4 629.4,651 			"/>
			<polygon class="st5" points="761.9,548.4 748.3,780 629.4,651 			"/>
			<path class="st1" d="M521.3-3.3l195.4,52.8c0,0-104.7,165.4-109.6,165.8C602.2,215.8,521.3-3.3,521.3-3.3z"/>
			<polygon class="st7" points="607.1,215.3 622.9,403.4 448.8,271.5 			"/>
			<polygon class="st3" points="622.9,403.4 629.4,651 450.8,533.2 			"/>
			<path class="st4" d="M607.1,215.3l-156.7-80.9L521.3-3.3C521.3-3.3,602.2,215.8,607.1,215.3z"/>
			<polygon class="st4" points="622.9,403.4 450.8,533.2 448.8,271.5 			"/>
			<polygon class="st2" points="629.4,651 413.3,825.2 450.8,533.2 			"/>
			<polygon class="st4" points="521.3,-3.3 356.1,32 424,-82.3 			"/>
			<polygon class="st4" points="356.1,32 450.4,134.5 192.3,159.5 			"/>
			<polygon class="st1" points="450.4,134.5 448.8,271.5 280,262.5 			"/>
			<polygon class="st3" points="450.4,134.5 280,262.5 192.3,159.5 			"/>
			<polygon class="st6" points="424,-82.3 356.1,32 201.7,-62 			"/>
			<polygon class="st3" points="448.8,271.5 450.8,533.2 265.6,484.5 			"/>
			<polygon class="st4" points="448.8,271.5 265.6,484.5 280,262.5 			"/>
			<polygon class="st1" points="450.8,533.2 413.3,825.2 356,638.8 			"/>
			<polygon class="st4" points="450.8,533.2 356,638.8 265.6,484.5 			"/>
			<polygon class="st3" points="356.1,32 108.6,103.9 201.7,-62 			"/>
			<polygon class="st7" points="356,638.8 413.3,825.2 216,697.8 			"/>
			<polygon class="st2" points="413.3,825.2 319.3,1118.6 293.6,837.3 			"/>
			<polygon class="st4" points="192.3,159.5 280,262.5 142.8,376.2 			"/>
			<polygon class="st7" points="280,262.5 265.6,484.5 142.8,376.2 			"/>
			<polygon class="st2" points="293.6,837.3 319.3,1118.6 101.3,796.4 			"/>
			<polygon class="st7" points="101.3,796.4 319.3,1118.6 93,1065 			"/>
			<polygon class="st4" points="142.8,376.2 265.6,484.5 56.7,586.1 			"/>
			<polygon class="st6" points="265.6,484.5 216,697.8 56.7,586.1 			"/>
			<polygon class="st7" points="216,697.8 293.6,837.3 101.3,796.4 			"/>
			<polygon class="st4" points="201.7,-62 108.6,103.9 -152.6,15.5 			"/>
			<polygon class="st2" points="192.3,159.5 25.5,351.5 108.6,103.9 			"/>
			<polygon class="st3" points="142.8,376.2 56.7,586.1 25.5,351.5 			"/>
			<polygon class="st1" points="108.6,103.9 25.5,351.5 -274.5,231.6 			"/>
			<polygon class="st3" points="108.6,103.9 -274.5,231.6 -152.6,15.5 			"/>
			<polygon class="st6" points="25.5,351.5 56.7,586.1 -205.1,489.4 			"/>
			<polygon class="st7" points="25.5,351.5 -205.1,489.4 -274.5,231.6 			"/>
			<polygon class="st3" points="-194.3,728.9 -220.7,990.3 -525.9,783.1 			"/>
		</g>
		<g>
		</g>
	</g>
	<g id="XMLID_2_" class="st0">
		<g>
			<polygon class="st1" points="-359.5,82.2 -411.9,331.8 -204.1,483 			"/>
			<polygon class="st2" points="-411.9,331.8 -274.7,658.3 -204.1,483 			"/>
			<polygon class="st3" points="-359.5,82.2 -204.1,483 -56.7,296.5 			"/>
			<polygon class="st4" points="-274.7,658.3 -330,942.3 34.8,941.4 			"/>
			<polygon class="st3" points="-330,942.3 11.4,1002.4 34.8,941.4 			"/>
			<polygon class="st5" points="-204.1,483 -274.7,658.3 34.8,941.4 			"/>
			<polygon class="st4" points="-56.7,296.5 -204.1,483 78,756.7 			"/>
			<polygon class="st1" points="-204.1,483 34.8,941.4 78,756.7 			"/>
			<polygon class="st5" points="178.1,-16.4 -56.7,296.5 303.4,462.6 			"/>
			<polygon class="st4" points="78,756.7 34.8,941.4 384,1191.2 			"/>
			<polygon class="st3" points="303.4,462.6 78,756.7 456.1,823.9 			"/>
			<polygon class="st1" points="178.1,-16.4 303.4,462.6 325.2,84.6 			"/>
			<polygon class="st3" points="325.2,84.6 303.4,462.6 516.9,287.5 			"/>
			<polygon class="st5" points="303.4,462.6 456.1,823.9 753.9,488.6 			"/>
			<polygon class="st6" points="456.1,823.9 384,1191.2 703.1,813.1 			"/>
			<polygon class="st3" points="703.1,813.1 384,1191.2 674.1,1299.5 			"/>
			<polygon class="st1" points="753.9,488.6 456.1,823.9 703.1,813.1 			"/>
			<path class="st7" d="M640.3,12.7L516.9,287.5c0,0,231.6,200.6,237,201.1c0.3-4-109.9-461.5-113.4-475.6L640.3,12.7z"/>
			<polygon class="st4" points="640.3,12.5 640.3,12.7 640.5,13 827.9,264.5 789.5,88 			"/>
			<polygon class="st4" points="640.3,12.5 789.5,88 858.5,-8.4 			"/>
			<path class="st1" d="M827.9,264.5L640.5,13c3.4,14.1,113.7,471.7,113.4,475.6L827.9,264.5z"/>
			<polygon class="st2" points="753.9,488.6 703.1,813.1 859.9,704.1 			"/>
			<polygon class="st6" points="703.1,813.1 875.9,981.1 859.9,704.1 			"/>
			<polygon class="st4" points="753.9,488.6 1026,531.1 1044.8,306.4 			"/>
			<polygon class="st4" points="858.5,-8.4 789.5,88 913.8,108.3 			"/>
			<path class="st4" d="M913.8,108.3l-86,156.1l216.9,41.9C1039,305.9,913.8,108.3,913.8,108.3z"/>
			<polygon class="st4" points="858.5,-8.4 913.8,108.3 1147.3,45.2 			"/>
			<polygon class="st1" points="858.5,-8.4 1147.3,45.2 1263.6,-49.4 			"/>
			<polygon class="st4" points="1026,531.1 859.9,704.1 1018.2,827 			"/>
			<polygon class="st5" points="859.9,704.1 875.9,981.1 1018.2,827 			"/>
			<path class="st1" d="M1147.3,45.2l-233.5,63.1c0,0,125.2,197.6,131,198.1C1050.6,306.9,1147.3,45.2,1147.3,45.2z"/>
			<polygon class="st7" points="1044.8,306.4 1026,531.1 1234,373.3 			"/>
			<polygon class="st3" points="1026,531.1 1018.2,827 1231.3,686.1 			"/>
			<path class="st4" d="M1044.8,306.4l187.2-96.6l-84.7-164.6C1147.3,45.2,1050.6,306.9,1044.8,306.4z"/>
			<polygon class="st4" points="1026,531.1 1231.3,686.1 1234,373.3 			"/>
			<polygon class="st2" points="1018.2,827 1276.2,1035 1231.3,686.1 			"/>
			<polygon class="st4" points="1147.3,45.2 1344.5,87.3 1263.6,-49.4 			"/>
			<polygon class="st4" points="1344.5,87.3 1232,209.8 1540.5,239.6 			"/>
			<polygon class="st1" points="1232,209.8 1234,373.3 1435.7,362.7 			"/>
			<polygon class="st3" points="1232,209.8 1435.7,362.7 1540.5,239.6 			"/>
			<polygon class="st6" points="1263.6,-49.4 1344.5,87.3 1529.3,-25 			"/>
			<polygon class="st3" points="1234,373.3 1231.3,686.1 1452.9,627.8 			"/>
			<polygon class="st4" points="1234,373.3 1452.9,627.8 1435.7,362.7 			"/>
			<polygon class="st1" points="1231.3,686.1 1276.2,1035 1344.8,812.4 			"/>
			<polygon class="st4" points="1231.3,686.1 1344.8,812.4 1452.9,627.8 			"/>
			<polygon class="st3" points="1344.5,87.3 1640.5,173.3 1529.3,-25 			"/>
			<polygon class="st7" points="1344.8,812.4 1276.2,1035 1512.1,882.9 			"/>
			<polygon class="st2" points="1276.2,1035 1388.5,1385.6 1419.4,1049.6 			"/>
			<polygon class="st4" points="1540.5,239.6 1435.7,362.7 1599.4,498.4 			"/>
			<polygon class="st7" points="1435.7,362.7 1452.9,627.8 1599.4,498.4 			"/>
			<polygon class="st2" points="1419.4,1049.6 1388.5,1385.6 1649.2,1000.6 			"/>
			<polygon class="st7" points="1649.2,1000.6 1388.5,1385.6 1659,1321.6 			"/>
			<polygon class="st4" points="1599.4,498.4 1452.9,627.8 1702.4,749.1 			"/>
			<polygon class="st6" points="1452.9,627.8 1512.1,882.9 1702.4,749.1 			"/>
			<polygon class="st7" points="1512.1,882.9 1419.4,1049.6 1649.2,1000.6 			"/>
			<polygon class="st4" points="1529.3,-25 1640.5,173.3 1952.5,67.6 			"/>
			<polygon class="st2" points="1540.5,239.6 1739.8,468.8 1640.5,173.3 			"/>
			<polygon class="st3" points="1599.4,498.4 1702.4,749.1 1739.8,468.8 			"/>
			<polygon class="st1" points="1640.5,173.3 1739.8,468.8 2098.2,325.7 			"/>
			<polygon class="st3" points="1640.5,173.3 2098.2,325.7 1952.5,67.6 			"/>
			<polygon class="st6" points="1739.8,468.8 1702.4,749.1 2015.3,633.6 			"/>
			<polygon class="st7" points="1739.8,468.8 2015.3,633.6 2098.2,325.7 			"/>
			<polygon class="st3" points="2002.4,920 2034,1232.3 2398.4,984.7 			"/>
		</g>
		<g>
		</g>
	</g>
</g>
<g id="XMLID_16_" class="st8">
	<g>
		<path class="st7" d="M2782.3,1677.3l376.9,617.5c0,0,711.3-186.9,719.6-197c-7.4-6-1063.1-408.2-1095.8-420.6L2782.3,1677.3z"/>
		<polygon class="st4" points="2781.9,1677 2782.3,1677.3 2783,1677.2 3535.2,1647.5 3133.9,1484 		"/>
		<polygon class="st4" points="2781.9,1677 3133.9,1484 3036.9,1216.1 		"/>
		<path class="st1" d="M3535.2,1647.5l-752.2,29.7c32.7,12.4,1088.4,414.6,1095.8,420.6L3535.2,1647.5z"/>
		<polygon class="st5" points="3535.2,1647.5 3878.8,2097.8 3912.6,1275 		"/>
		<polygon class="st5" points="3878.8,2097.8 4449.3,2181.1 4332,1617.3 		"/>
		<polygon class="st4" points="3878.8,2097.8 4332,1617.3 3912.6,1275 		"/>
		<polygon class="st4" points="3036.9,1216.1 3133.9,1484 3342.8,1265.5 		"/>
		<polygon class="st7" points="3133.9,1484 3535.2,1647.5 3342.8,1265.5 		"/>
		<path class="st4" d="M3342.8,1265.5l192.5,382l377.4-372.6C3903.7,1285.9,3342.8,1265.5,3342.8,1265.5z"/>
		<polygon class="st4" points="3036.9,1216.1 3342.8,1265.5 3534.7,717.5 		"/>
		<polygon class="st1" points="3036.9,1216.1 3534.7,717.5 3505.6,359.3 		"/>
		<path class="st1" d="M3534.7,717.5l-191.9,548c0,0,561,20.3,569.9,9.5C3921.5,1264.1,3534.7,717.5,3534.7,717.5z"/>
		<polygon class="st7" points="3912.6,1275 4332,1617.3 4302.2,991.4 		"/>
		<polygon class="st4" points="3912.6,1275 4302.2,991.4 3975.4,773.2 		"/>
		<path class="st4" d="M3912.6,1275l62.7-501.7l-440.7-55.7C3534.7,717.5,3921.5,1264.1,3912.6,1275z"/>
		<polygon class="st4" points="4332,1617.3 4917.7,1420.6 4302.2,991.4 		"/>
		<polygon class="st7" points="3534.7,717.5 3975.4,773.2 3886,384 		"/>
		<polygon class="st4" points="3534.7,717.5 3886,384 3505.6,359.3 		"/>
		<polygon class="st4" points="3886,384 3975.4,773.2 4453,203.1 		"/>
		<polygon class="st1" points="3975.4,773.2 4302.2,991.4 4554.4,577.6 		"/>
		<polygon class="st3" points="3975.4,773.2 4554.4,577.6 4453,203.1 		"/>
		<polygon class="st3" points="4302.2,991.4 4917.7,1420.6 5103.1,903.6 		"/>
		<polygon class="st4" points="4302.2,991.4 5103.1,903.6 4554.4,577.6 		"/>
		<polygon class="st4" points="4917.7,1420.6 5321.4,1367.7 5103.1,903.6 		"/>
		<polygon class="st4" points="3886,384 4453,203.1 4457.4,-85 		"/>
		<polygon class="st5" points="5103.1,903.6 5321.4,1367.7 5688,1132.1 		"/>
		<polygon class="st4" points="4453,203.1 4554.4,577.6 5046,437.6 		"/>
		<polygon class="st7" points="4554.4,577.6 5103.1,903.6 5046,437.6 		"/>
		<polygon class="st4" points="5046,437.6 5103.1,903.6 5681.9,574.2 		"/>
		<polygon class="st6" points="5103.1,903.6 5688,1132.1 5681.9,574.2 		"/>
		<polygon class="st4" points="4453,203.1 5046,437.6 5177.7,119.8 		"/>
		<polygon class="st2" points="4453,203.1 5177.7,119.8 4457.4,-85 		"/>
		<polygon class="st3" points="5046,437.6 5681.9,574.2 5177.7,119.8 		"/>
	</g>
	<g>
	</g>
</g>
</svg>
