<?xml version="1.0" encoding="utf-8"?>
<!-- Generator: Adobe Illustrator 25.2.1, SVG Export Plug-In . SVG Version: 6.00 Build 0)  -->
<svg version="1.1" id="Ebene_1" xmlns="http://www.w3.org/2000/svg" xmlns:xlink="http://www.w3.org/1999/xlink" x="0px" y="0px"
	 viewBox="0 0 11.5 8.8" style="enable-background:new 0 0 11.5 8.8;" xml:space="preserve">
<style type="text/css">
	.st0{fill:#FF5733;}
</style>
<g>
	<g>
		<path class="st0" d="M9.3,8.4h-7c-1.1,0-2-0.9-2-2v-4c0-1.1,0.9-2,2-2h7c1.1,0,2,0.9,2,2v4C11.3,7.5,10.4,8.4,9.3,8.4z M2.3,1.4
			c-0.6,0-1,0.4-1,1v4c0,0.6,0.4,1,1,1h7c0.6,0,1-0.4,1-1v-4c0-0.6-0.4-1-1-1H2.3z"/>
	</g>
	<g>
		<path class="st0" d="M5.8,5.9c-0.1,0-0.2,0-0.3-0.1l-3-2.5C2.3,3.1,2.3,2.8,2.4,2.6c0.2-0.2,0.5-0.2,0.7-0.1l2.7,2.2l2.7-2.2
			C8.7,2.3,9,2.4,9.2,2.6c0.2,0.2,0.1,0.5-0.1,0.7l-3,2.5C6,5.8,5.9,5.9,5.8,5.9z"/>
	</g>
	<g>
		<path class="st0" d="M2.8,6.4c-0.1,0-0.3,0-0.4-0.1C2.3,6,2.3,5.7,2.5,5.5l1.6-1.6c0.2-0.2,0.5-0.2,0.7,0s0.2,0.5,0,0.7L3.2,6.2
			C3.1,6.3,2.9,6.4,2.8,6.4z"/>
	</g>
	<g>
		<path class="st0" d="M8.8,6.4c-0.1,0-0.3,0-0.4-0.1L6.8,4.6c-0.2-0.2-0.2-0.5,0-0.7c0.2-0.2,0.5-0.2,0.7,0l1.6,1.6
			c0.2,0.2,0.2,0.5,0,0.7C9.1,6.3,8.9,6.4,8.8,6.4z"/>
	</g>
</g>
</svg>
