<?xml version="1.0" encoding="utf-8"?>
<!-- Generator: Adobe Illustrator 25.2.1, SVG Export Plug-In . SVG Version: 6.00 Build 0)  -->
<svg version="1.1" id="Layer_1" xmlns="http://www.w3.org/2000/svg" xmlns:xlink="http://www.w3.org/1999/xlink" x="0px" y="0px"
	 viewBox="0 0 100 100" style="enable-background:new 0 0 100 100;" xml:space="preserve">
<style type="text/css">
	.st0{fill:#FF5733;}
</style>
<g>
	<g>
		<path class="st0" d="M68.5,10.8h-37c-11.4,0-20.7,9.5-20.7,21.1v36.2c0,11.6,9.3,21.1,20.7,21.1h37.1c11.4,0,20.7-9.5,20.7-21.1
			V31.9C89.2,20.3,79.9,10.8,68.5,10.8z M82.2,67.6c0,8-6.4,14.6-14.3,14.6H32.1c-7.9,0-14.3-6.6-14.3-14.6V32.4
			c0-8,6.4-14.6,14.3-14.6h35.8c7.9,0,14.3,6.6,14.3,14.6V67.6z"/>
		<path class="st0" d="M50,29.9c-10.9,0-19.7,9-19.7,20.1S39.1,70.1,50,70.1s19.7-9,19.7-20.1S60.9,29.9,50,29.9z M50,63
			c-7,0-12.7-5.8-12.7-13S43,37,50,37s12.7,5.8,12.7,13S57,63,50,63z"/>
		<ellipse class="st0" cx="70.8" cy="28.8" rx="4.5" ry="4.5"/>
	</g>
</g>
</svg>
